<svg width="40" height="40" viewBox="0 0 40 40" fill="none" xmlns="http://www.w3.org/2000/svg">
<path d="M18.8617 30.2405C18.8242 30.3322 18.843 30.2905 18.8617 30.2405V30.2405ZM34.4285 22.9911C33.1716 22.9907 31.9315 23.3756 30.8039 24.116C30.4352 23.1244 30.054 22.2578 29.9915 21.6079C29.9165 20.8496 29.8353 20.3997 29.9228 19.4997C30.0103 18.5998 30.404 17.3249 30.3977 17.2332C30.3915 17.1416 30.3102 16.6833 29.5041 16.675C28.6979 16.6666 28.0043 16.8833 27.923 17.1666C27.7807 17.6843 27.6699 18.2166 27.5918 18.7581C27.4481 19.733 25.9795 23.2161 25.1484 25.0326C24.8734 24.3243 24.6422 23.6994 24.5922 23.1994C24.5172 22.4412 24.436 21.9912 24.5235 21.0913C24.611 20.1913 25.0047 18.9164 24.9984 18.8248C24.9922 18.7331 24.9109 18.2748 24.1048 18.2665C23.2986 18.2582 22.605 18.4748 22.5237 18.7581C22.4425 19.0414 22.355 19.708 22.1925 20.3497C22.03 20.9913 20.074 26.7908 19.5616 28.299C19.2991 29.0656 19.0742 29.6822 18.9117 30.0989C18.8867 30.1655 18.868 30.2072 18.8555 30.2405C18.8742 30.1989 18.8867 30.1572 18.8867 30.1739C18.7492 30.5322 18.668 30.7321 18.668 30.7321V30.7405C18.5617 31.0071 18.443 31.2488 18.3868 31.2488C18.3493 31.2488 18.268 30.5488 18.4055 29.5906C18.6992 27.5741 19.3929 24.441 19.3866 24.3327C19.3804 24.2743 19.5179 23.7327 18.9304 23.4411C18.3618 23.1661 18.1555 23.6244 18.1056 23.6244C18.0556 23.6244 18.0181 23.791 18.0181 23.791C18.0181 23.791 18.6492 20.258 16.8057 20.258C15.6559 20.258 14.0561 21.9412 13.2687 23.4661C12.775 23.8244 11.7064 24.5993 10.5815 25.4242C10.1503 25.7409 9.70663 26.0659 9.28793 26.3742C9.25669 26.3325 9.23169 26.2908 9.20044 26.2492C6.96323 23.0661 2.83251 20.8163 3.00749 16.5416C3.06998 14.9834 3.47618 10.8921 10.9502 5.92583C17.0744 1.85949 21.9738 2.97607 22.8112 5.4592C24.0235 9.00058 20.1928 15.5917 13.8311 16.5416C11.4064 16.8999 10.1316 15.65 9.81287 15.1834C9.48166 14.6918 9.43166 14.6668 9.30668 14.7584C9.10046 14.9084 9.23169 15.3417 9.30668 15.6C9.49416 16.2583 10.2753 17.4249 11.6064 18.0082C12.775 18.5165 15.6184 18.7998 19.0554 17.0249C22.9174 15.0418 25.9233 9.5172 25.0422 4.89258C24.1548 0.192964 18.3118 -1.34858 12.7875 1.26788C9.49416 2.82608 5.93211 5.27588 3.36994 8.46729C0.326583 12.267 -0.160855 15.575 0.0391195 16.9583C0.751528 21.8662 5.82588 25.0659 7.85687 27.4324C7.75688 27.5074 7.66314 27.5741 7.57565 27.6407C6.55703 28.3157 2.68878 31.0155 1.72015 33.8652C0.626544 37.0983 1.90138 39.4148 2.73877 39.7314C5.35094 40.698 8.02559 38.9565 9.46291 36.0984C10.9002 33.2403 10.7252 29.5072 10.0628 27.8074C10.0566 27.7824 10.0441 27.7657 10.0378 27.7407C10.3003 27.5324 10.569 27.3241 10.8377 27.1158C11.3564 26.7075 11.8626 26.3325 12.3063 26.0075C12.0563 26.9075 11.8751 27.9907 11.7814 29.5572C11.6689 31.3904 12.2376 33.7652 12.975 34.6985C13.2999 35.1068 13.6936 35.1151 13.9373 35.1151C14.7997 35.1151 15.1872 34.1652 15.6184 33.032C16.1496 31.6487 16.6182 30.0405 16.6182 30.0405C16.6182 30.0405 16.0308 34.3902 17.6369 34.3902C18.2243 34.3902 18.8117 33.3819 19.0742 32.8653V32.8736C19.0742 32.8736 19.0867 32.8403 19.1179 32.7736C19.1804 32.6487 19.2117 32.5737 19.2117 32.5737V32.5487C19.4491 32.007 19.9678 30.7655 20.749 28.7156C21.7613 26.0659 22.73 22.7578 22.73 22.7578C22.8235 23.485 22.9529 24.2032 23.1174 24.9076C23.2924 25.6992 23.6611 26.5658 23.9548 27.4074C23.7173 27.8407 23.5736 28.0907 23.5736 28.0907C23.574 28.0971 23.5762 28.1031 23.5798 28.1074C23.3924 28.4407 23.1799 28.799 22.9612 29.1489C22.1613 30.4155 21.2114 31.8654 21.0864 32.282C20.9364 32.7736 20.9739 33.1403 21.2614 33.4236C21.4739 33.6402 21.8488 33.6736 22.2425 33.6319C22.9612 33.5652 23.4674 33.3319 23.7111 33.1819C24.1606 32.9672 24.5855 32.6699 24.9734 32.2987C25.7546 31.5321 26.2295 30.4322 26.1858 28.9823C26.1608 28.1824 25.967 27.3824 25.7296 26.6325C25.7983 26.4992 25.8733 26.3575 25.942 26.2158C27.1731 23.8077 28.1293 21.1663 28.1293 21.1663C28.2228 21.8935 28.3522 22.6116 28.5167 23.3161C28.6667 23.991 28.9604 24.7326 29.2291 25.4576C28.0668 26.7158 27.3481 28.174 27.0981 29.1323C26.6357 30.9071 26.9982 31.7071 27.6793 31.8904C27.9855 31.9737 28.423 31.7821 28.7479 31.5987C29.2307 31.3844 29.686 31.0725 30.0978 30.6738C30.8789 29.9072 31.6351 28.8323 31.5851 27.3741C31.5663 26.7158 31.4288 26.0575 31.2476 25.4242C32.2287 24.8743 33.5036 24.5743 35.1284 24.8243C38.6092 25.3659 39.2903 28.2657 39.1591 29.4739C39.0279 30.6821 38.2967 31.3571 38.053 31.5571C37.8093 31.7571 37.7343 31.8321 37.753 31.982C37.7843 32.1987 37.8968 32.1904 38.103 32.1404C38.3904 32.0737 39.9278 31.1571 39.9965 28.9156C40.0965 26.0825 38.053 22.9661 34.4347 22.9911H34.4285ZM7.6069 35.0485C6.45705 36.7233 4.84475 37.3566 4.15109 36.8233C3.41369 36.2484 3.7074 33.7819 5.12597 31.9987C5.98836 30.9155 7.10071 29.9155 7.83812 29.2989C8.00685 29.1656 8.25057 28.9656 8.55053 28.724C8.60052 28.6823 8.62552 28.6656 8.62552 28.6656C8.68176 28.6156 8.74425 28.574 8.80674 28.524C9.32543 31.0571 8.82549 33.2903 7.61315 35.0485H7.6069ZM16.0058 27.4324C15.6059 28.7406 14.7622 32.0737 14.2498 31.8987C13.8124 31.7487 13.5436 29.2073 14.1623 26.7075C14.4748 25.4492 15.1372 23.9494 15.5309 23.3661C16.1621 22.4245 16.8557 22.1245 17.0182 22.4995C17.2369 22.9911 16.2558 26.6158 16.0058 27.4324ZM22.9424 31.8487C22.7737 31.9654 22.6175 32.0404 22.5425 31.982C22.4862 31.9404 22.6112 31.7821 22.6112 31.7821C22.6112 31.7821 23.4799 30.5405 23.8236 29.9739C24.0235 29.6406 24.2548 29.2489 24.5047 28.8156C24.5047 28.8573 24.511 28.899 24.511 28.949C24.5047 30.4405 23.4299 31.4488 22.9424 31.8487ZM28.2917 30.2239C28.1668 30.1072 28.1855 29.7156 28.6042 28.499C28.7667 28.024 29.1416 27.2241 29.7916 26.4575C29.8652 26.7477 29.9052 27.0511 29.9103 27.3574C29.904 29.2323 28.8979 29.9322 28.2917 30.2239Z" fill="#C88989"/>
</svg>
