<svg width="42" height="42" viewBox="0 0 42 42" fill="none" xmlns="http://www.w3.org/2000/svg">
<path d="M21 41C32.0457 41 41 32.0457 41 21C41 9.9543 32.0457 1 21 1C9.9543 1 1 9.9543 1 21C1 32.0457 9.9543 41 21 41Z" fill="#57B45A" stroke="#57B45A" stroke-width="0.78125"/>
<path d="M26.3462 18.5562C25.083 12.9809 22.0974 11.1477 21.7759 10.4473C21.4244 9.95313 21.0681 9.07422 21.0681 9.07422C21.0622 9.05937 21.0529 9.0332 21.0419 9.00781C21.0056 9.50195 20.9869 9.69258 20.5197 10.191C19.7962 10.7566 16.0845 13.8711 15.7826 20.2055C15.5009 26.1133 20.0501 29.6336 20.6654 30.0824L20.7353 30.132V30.1277C20.7392 30.1574 20.9306 31.534 21.065 32.9926H21.547C21.6601 31.9615 21.8296 30.9375 22.0548 29.925L22.0939 29.8996C22.3691 29.7023 22.6315 29.4877 22.8794 29.257L22.9076 29.2316C24.2154 28.0234 26.5665 25.2289 26.5435 20.7734C26.5386 20.0302 26.4727 19.2887 26.3462 18.5562ZM21.0138 26.7469C21.0138 26.7469 21.0138 18.4609 21.2872 18.4625C21.5005 18.4625 21.7767 29.1504 21.7767 29.1504C21.397 29.1047 21.0138 27.3914 21.0138 26.7469Z" fill="black" stroke="#57B45A" stroke-width="0.78125"/>
</svg>
