<svg width="24" height="22" viewBox="0 0 24 22" fill="none" xmlns="http://www.w3.org/2000/svg">
<path d="M8.02742 17.7144C8.02742 17.8053 7.91613 17.8781 7.77581 17.8781C7.61613 17.8918 7.50484 17.819 7.50484 17.7144C7.50484 17.6234 7.61613 17.5506 7.75645 17.5506C7.90161 17.537 8.02742 17.6097 8.02742 17.7144ZM6.52258 17.5097C6.48871 17.6006 6.58548 17.7053 6.73065 17.7326C6.85645 17.7781 7.00161 17.7326 7.03064 17.6416C7.05968 17.5506 6.96774 17.446 6.82258 17.405C6.69677 17.3732 6.55645 17.4187 6.52258 17.5097ZM8.66129 17.4323C8.52097 17.4642 8.42419 17.5506 8.43871 17.6552C8.45323 17.7462 8.57903 17.8054 8.72419 17.7735C8.86452 17.7417 8.96129 17.6552 8.94677 17.5642C8.93226 17.4778 8.80161 17.4187 8.66129 17.4323ZM11.8452 0C5.13387 0 0 4.79025 0 11.0999C0 16.1449 3.37742 20.4621 8.20161 21.9815C8.82097 22.0861 9.03871 21.7267 9.03871 21.431C9.03871 21.149 9.02419 19.5932 9.02419 18.6378C9.02419 18.6378 5.6371 19.3202 4.92581 17.2822C4.92581 17.2822 4.37419 15.9584 3.58065 15.6172C3.58065 15.6172 2.47258 14.903 3.65806 14.9166C3.65806 14.9166 4.8629 15.0076 5.52581 16.0903C6.58548 17.8463 8.36129 17.3413 9.05323 17.0411C9.16452 16.3132 9.47903 15.8083 9.82742 15.508C7.12258 15.226 4.39355 14.8575 4.39355 10.4812C4.39355 9.23021 4.76129 8.60243 5.53548 7.80178C5.40968 7.50609 4.99839 6.28692 5.66129 4.71291C6.67258 4.41722 9 5.94118 9 5.94118C9.96774 5.68643 11.0081 5.55451 12.0387 5.55451C13.0694 5.55451 14.1097 5.68643 15.0774 5.94118C15.0774 5.94118 17.4048 4.41267 18.4161 4.71291C19.079 6.29147 18.6677 7.50609 18.5419 7.80178C19.3161 8.60698 19.7903 9.23476 19.7903 10.4812C19.7903 14.8712 16.9403 15.2214 14.2355 15.508C14.6806 15.8674 15.0581 16.5498 15.0581 17.6188C15.0581 19.1519 15.0435 21.0489 15.0435 21.4219C15.0435 21.7176 15.2661 22.077 15.8806 21.9724C20.7194 20.4621 24 16.1449 24 11.0999C24 4.79025 18.5565 0 11.8452 0ZM4.70323 15.69C4.64032 15.7355 4.65484 15.8401 4.7371 15.9266C4.81452 15.9993 4.92581 16.0312 4.98871 15.972C5.05161 15.9266 5.0371 15.8219 4.95484 15.7355C4.87742 15.6627 4.76613 15.6309 4.70323 15.69ZM4.18064 15.3215C4.14677 15.3807 4.19516 15.4534 4.29194 15.4989C4.36935 15.5444 4.46613 15.5308 4.5 15.4671C4.53387 15.408 4.48548 15.3352 4.38871 15.2897C4.29194 15.2624 4.21452 15.276 4.18064 15.3215ZM5.74839 16.941C5.67097 17.0002 5.7 17.1366 5.81129 17.2231C5.92258 17.3277 6.0629 17.3413 6.12581 17.2686C6.18871 17.2094 6.15968 17.0729 6.0629 16.9865C5.95645 16.8819 5.81129 16.8682 5.74839 16.941ZM5.19677 16.2723C5.11935 16.3178 5.11935 16.4361 5.19677 16.5407C5.27419 16.6453 5.40484 16.6908 5.46774 16.6453C5.54516 16.5862 5.54516 16.4679 5.46774 16.3633C5.4 16.2586 5.27419 16.2132 5.19677 16.2723Z" fill="white"/>
</svg>
