<?xml version="1.0" ?><svg id="Capa_1" fill="#FFFFFF" style="enable-background:new 0 0 436.8 442;" version="1.1" viewBox="0 0 436.8 442" xml:space="preserve" xmlns="http://www.w3.org/2000/svg" xmlns:xlink="http://www.w3.org/1999/xlink"><g><path d="M332.9,200.7l39.1-85c7-12.7,15.8-20.1,26-22.1c9.9-1.9,17.4,2,20.7,4.2c26.7,13.6,18.3,51,8.8,71.3   c-16.8,38.8-26.1,71.5-34.2,100.3c-12.1,42.9-22.6,80-52.6,120.9c-24,32.8-61.7,51.7-102,51.7c-2.9,0-5.9-0.1-8.8-0.3   c-41.5-2.8-77.7-25.5-96.7-60.6c-26.4-48.9-92.9-100.5-120.3-120.5C4.8,254.5-0.1,244.8,0,234.5c0.1-10.2,5.2-19.7,13.5-25.4   c11.6-8,28.3-10.1,49.5-6.1c15.2,2.9,29.7,9,43.4,18.4c13.7,9.4,21.8,12.2,25.9,13.1c0.3-21.2-26.6-91.2-37.1-118.7   c-3.8-9.8-7-18.3-9.5-25.2c-5.2-14.3,2.5-31.7,12.8-40.4c8.3-6.9,19.2-9.5,29.7-7c10.6,2.5,19.1,9.7,23.4,19.6l0.3,0.7l37.8,102.1   l-9.4-127.7c-0.6-17.5,14.9-35.4,32.4-37.6l0.9-0.1l7.1,0.1c9.8-0.9,20.1,2.4,27.9,9c7.4,6.2,11.6,14.6,12,23.6l6.1,122.4   l10.7-91.5c3.1-16,17.2-27.6,33.5-27.6h5.1c10.1,0,19.7,4.5,26.2,12.3c6.5,7.7,9.1,17.8,7.4,27.7L332.9,200.7z M43.4,226.9   c-6.6,0-11.8,1.2-15.1,3.5c-2,1.4-2.3,3.4-2.3,4.4c0,0.9,0.2,3.2,2.4,4.9c35.8,26.1,99.9,77.5,127.8,129.1   c14.8,27.3,43,44.9,75.7,47.1c34.7,2.4,67.6-12.9,88.1-40.9c27.2-37.1,36.6-70.4,48.5-112.6c8.4-29.6,17.9-63.2,35.4-103.7l0.1-0.3   c5-10.8,11.1-33.7,2.6-37.6l-2.1-1l-0.5-0.5c-0.3-0.1-0.8-0.3-1.3-0.2c-1.6,0.4-4.6,2.9-7.9,8.8l-43.3,94.2l-0.7,1   c-7,9.8-19.9,4.7-26,2.3c-11.6-4.6-22.1-10.3-20.6-21.3l19.9-132.5c0.6-3.3-0.9-5.6-1.8-6.7c-0.9-1.1-3-2.9-6.3-2.9H311   c-3.8,0-7.1,2.6-8,6.3l-15.7,122.2c-2.8,14.5-23.4,13.7-27.5,13.4c-15.5-1.2-16.7-12.2-16.8-14.3l-8.3-155.5   c-0.1-2.4-1.8-4.1-2.9-5c-2.5-2.1-6-3.3-8.9-2.9l-0.9,0.1l-6.7-0.1c-4.2,1-9.1,6.7-9.1,10.7l11.1,152.1c0.1,6.1-3.1,14-19.3,17.2   c-16.1,3.2-22-2.9-24.2-8.6L127.8,72.8c-1.4-3.1-4.1-4.1-5.5-4.4c-1.5-0.4-4.4-0.6-7.1,1.7c-3.6,3-5.8,9.5-5.1,11.6   c2.4,6.6,5.6,15,9.3,24.7c35.1,91.5,47.3,132.5,32.1,148.2c-15,15.9-46.8-3-59.8-11.9c-10.6-7.3-21.9-12.1-33.5-14.3   C52.7,227.4,47.7,226.9,43.4,226.9z"/></g></svg>