<svg width="70" height="28" viewBox="0 0 70 28" fill="none" xmlns="http://www.w3.org/2000/svg">
<path d="M0.455581 21.8337V11.0742H10.1822V10.4449H0.455581V0.629214H10.7973V0H0V22.4629H10.8884V21.8337H0.455581ZM19.6583 6.29213L15.6264 13.6225L11.6856 6.29213H11.0934L15.3531 14.0944L10.6834 22.4629H11.2301L15.6264 14.5663L20.0456 22.4629H20.615L15.9226 14.0944L20.205 6.29213H19.6583ZM21.9818 28V17.9326H22.0273C22.3007 19.4008 22.8398 20.5805 23.6446 21.4719C24.4495 22.3633 25.4746 22.809 26.7198 22.809C27.5247 22.809 28.2384 22.5835 28.861 22.1326C29.4837 21.6816 30.0038 21.0682 30.4214 20.2921C30.839 19.5161 31.1579 18.6142 31.3781 17.5865C31.5983 16.5588 31.7084 15.4787 31.7084 14.3461C31.7084 13.1296 31.5945 12.0075 31.3667 10.9798C31.139 9.95205 30.8087 9.06068 30.3759 8.30562C29.9431 7.55056 29.4191 6.9633 28.8041 6.54382C28.1891 6.12434 27.4943 5.91461 26.7198 5.91461C26.1276 5.91461 25.5771 6.0352 25.0683 6.2764C24.5596 6.5176 24.1078 6.85842 23.713 7.29888C23.3181 7.73933 22.9765 8.25842 22.6879 8.85618C22.3994 9.45393 22.1792 10.1094 22.0273 10.8225H21.9818V6.29213H21.5262V28H21.9818ZM26.7198 22.2112C25.2923 22.2112 24.1458 21.5348 23.2802 20.182C22.4146 18.8292 21.9818 16.8839 21.9818 14.3461C21.9818 13.2974 22.0881 12.3011 22.3007 11.3573C22.5133 10.4135 22.8208 9.58502 23.2232 8.87191C23.6257 8.1588 24.123 7.59251 24.7153 7.17303C25.3075 6.75356 25.9757 6.54382 26.7198 6.54382C27.4791 6.54382 28.1435 6.75356 28.713 7.17303C29.2825 7.59251 29.7532 8.16404 30.1253 8.88764C30.4973 9.61124 30.7783 10.4397 30.9681 11.373C31.1579 12.3064 31.2528 13.2974 31.2528 14.3461C31.2528 15.2899 31.1655 16.2285 30.9909 17.1618C30.8162 18.0951 30.5467 18.9341 30.1822 19.6786C29.8178 20.4232 29.3508 21.0315 28.7813 21.5034C28.2118 21.9753 27.5247 22.2112 26.7198 22.2112ZM34.2141 22.4629V13.3079C34.2141 12.427 34.3052 11.567 34.4875 10.7281C34.6697 9.88913 34.9506 9.14982 35.3303 8.51011C35.7099 7.87041 36.1921 7.36704 36.7768 7C37.3614 6.63296 38.0562 6.4809 38.861 6.54382V5.91461C38.1625 5.89363 37.5513 5.9985 37.0273 6.22921C36.5034 6.45993 36.0516 6.77453 35.672 7.17303C35.2923 7.57154 34.9886 8.0382 34.7608 8.57303C34.533 9.10787 34.366 9.6794 34.2597 10.2876H34.2141V6.29213H33.7585V22.4629H34.2141ZM39.4305 14.5034H49.2255C49.2559 13.3918 49.1762 12.3221 48.9863 11.2944C48.7965 10.2667 48.4928 9.35431 48.0752 8.5573C47.6576 7.7603 47.1185 7.1206 46.4579 6.6382C45.7973 6.1558 45.0114 5.91461 44.1002 5.91461C43.4472 5.91461 42.8094 6.10337 42.1868 6.4809C41.5642 6.85843 41.0175 7.40899 40.5467 8.13258C40.0759 8.85618 39.6963 9.74232 39.4077 10.791C39.1192 11.8397 38.9749 13.0352 38.9749 14.3775C38.9749 15.573 39.0737 16.6899 39.2711 17.7281C39.4685 18.7663 39.7722 19.6682 40.1822 20.4337C40.5923 21.1993 41.12 21.7918 41.7654 22.2112C42.4108 22.6307 43.1891 22.83 44.1002 22.809C45.4366 22.809 46.5604 22.2899 47.4715 21.2517C48.3827 20.2135 48.9218 18.7506 49.0888 16.8629H48.6333C48.4358 18.6457 47.9309 19.9828 47.1185 20.8742C46.306 21.7655 45.2847 22.2112 44.0547 22.2112C43.2194 22.2112 42.5133 22.012 41.9362 21.6135C41.3591 21.215 40.8884 20.6697 40.5239 19.9775C40.1595 19.2854 39.8899 18.4727 39.7153 17.5393C39.5406 16.606 39.4457 15.594 39.4305 14.5034ZM48.7699 13.8742H39.4305C39.4761 12.7416 39.6279 11.7243 39.8861 10.8225C40.1443 9.92059 40.4822 9.14982 40.8998 8.51011C41.3174 7.87041 41.8033 7.38277 42.3576 7.04719C42.9119 6.71161 43.508 6.54382 44.1458 6.54382C44.9051 6.54382 45.5733 6.73783 46.1503 7.12584C46.7274 7.51386 47.2096 8.04344 47.5968 8.71461C47.9841 9.38577 48.2764 10.167 48.4738 11.0584C48.6712 11.9498 48.7699 12.8884 48.7699 13.8742ZM58.6788 11.0742H59.1344C59.1344 9.2704 58.7547 7.95955 57.9954 7.14157C57.2361 6.32359 56.2035 5.91461 54.8975 5.91461C54.1686 5.91461 53.5535 6.04045 53.0524 6.29213C52.5513 6.54382 52.1412 6.86891 51.8223 7.26742C51.5034 7.66592 51.2756 8.10637 51.139 8.58876C51.0023 9.07116 50.9339 9.53258 50.9339 9.97303C50.9339 10.8539 51.0478 11.5566 51.2756 12.0809C51.5034 12.6052 51.8603 13.0142 52.3462 13.3079C52.6803 13.5176 53.06 13.7064 53.4852 13.8742C53.9104 14.0419 54.4039 14.2202 54.9658 14.409C55.467 14.5768 55.9605 14.7446 56.4465 14.9124C56.9324 15.0801 57.3614 15.3056 57.7335 15.5888C58.1055 15.8719 58.4093 16.2337 58.6446 16.6742C58.88 17.1146 58.9977 17.6914 58.9977 18.4045C58.9977 19.0966 58.88 19.6839 58.6446 20.1663C58.4093 20.6487 58.1093 21.0419 57.7449 21.3461C57.3804 21.6502 56.9742 21.8704 56.5262 22.0067C56.0782 22.1431 55.6416 22.2112 55.2164 22.2112C53.8345 22.2112 52.7752 21.7865 52.0387 20.9371C51.3022 20.0876 50.9339 18.7506 50.9339 16.9258H50.4784C50.4784 18.9603 50.877 20.4494 51.6743 21.3933C52.4715 22.3371 53.6522 22.809 55.2164 22.809C55.7175 22.809 56.2225 22.7303 56.7312 22.573C57.2399 22.4157 57.6955 22.1588 58.0979 21.8022C58.5004 21.4457 58.8269 20.9843 59.0774 20.418C59.328 19.8517 59.4533 19.1596 59.4533 18.3416C59.4533 17.5655 59.3432 16.9363 59.123 16.4539C58.9028 15.9715 58.6143 15.573 58.2574 15.2584C57.9005 14.9438 57.4981 14.6974 57.0501 14.5191C56.6021 14.3408 56.1503 14.1678 55.6948 14C55.0569 13.7693 54.4989 13.57 54.0205 13.4022C53.5421 13.2345 53.0979 13.0352 52.6879 12.8045C52.2931 12.5738 51.978 12.2434 51.7426 11.8135C51.5072 11.3835 51.3895 10.77 51.3895 9.97303C51.3895 9.82622 51.4199 9.56405 51.4806 9.18652C51.5414 8.80899 51.6856 8.42622 51.9134 8.0382C52.1412 7.65019 52.4905 7.30412 52.9613 7C53.432 6.69588 54.0774 6.54382 54.8975 6.54382C55.4594 6.54382 55.9719 6.62771 56.4351 6.79551C56.8983 6.9633 57.2969 7.23071 57.631 7.59775C57.9651 7.9648 58.2232 8.43146 58.4055 8.99775C58.5877 9.56405 58.6788 10.2562 58.6788 11.0742ZM69.2255 11.0742H69.6811C69.6811 9.2704 69.3014 7.95955 68.5421 7.14157C67.7828 6.32359 66.7502 5.91461 65.4442 5.91461C64.7153 5.91461 64.1002 6.04045 63.5991 6.29213C63.0979 6.54382 62.6879 6.86891 62.369 7.26742C62.0501 7.66592 61.8223 8.10637 61.6856 8.58876C61.549 9.07116 61.4806 9.53258 61.4806 9.97303C61.4806 10.8539 61.5945 11.5566 61.8223 12.0809C62.0501 12.6052 62.407 13.0142 62.8929 13.3079C63.227 13.5176 63.6067 13.7064 64.0319 13.8742C64.4571 14.0419 64.9506 14.2202 65.5125 14.409C66.0137 14.5768 66.5072 14.7446 66.9932 14.9124C67.4791 15.0801 67.9081 15.3056 68.2802 15.5888C68.6522 15.8719 68.956 16.2337 69.1913 16.6742C69.4267 17.1146 69.5444 17.6914 69.5444 18.4045C69.5444 19.0966 69.4267 19.6839 69.1913 20.1663C68.956 20.6487 68.656 21.0419 68.2916 21.3461C67.9271 21.6502 67.5209 21.8704 67.0729 22.0067C66.6249 22.1431 66.1883 22.2112 65.7631 22.2112C64.3812 22.2112 63.3219 21.7865 62.5854 20.9371C61.8489 20.0876 61.4806 18.7506 61.4806 16.9258H61.0251C61.0251 18.9603 61.4237 20.4494 62.221 21.3933C63.0182 22.3371 64.1989 22.809 65.7631 22.809C66.2642 22.809 66.7692 22.7303 67.2779 22.573C67.7866 22.4157 68.2422 22.1588 68.6446 21.8022C69.0471 21.4457 69.3736 20.9843 69.6241 20.418C69.8747 19.8517 70 19.1596 70 18.3416C70 17.5655 69.8899 16.9363 69.6697 16.4539C69.4495 15.9715 69.161 15.573 68.8041 15.2584C68.4472 14.9438 68.0448 14.6974 67.5968 14.5191C67.1488 14.3408 66.697 14.1678 66.2415 14C65.6036 13.7693 65.0456 13.57 64.5672 13.4022C64.0888 13.2345 63.6446 13.0352 63.2346 12.8045C62.8398 12.5738 62.5247 12.2434 62.2893 11.8135C62.0539 11.3835 61.9362 10.77 61.9362 9.97303C61.9362 9.82622 61.9666 9.56405 62.0273 9.18652C62.0881 8.80899 62.2323 8.42622 62.4601 8.0382C62.6879 7.65019 63.0372 7.30412 63.508 7C63.9787 6.69588 64.6241 6.54382 65.4442 6.54382C66.0061 6.54382 66.5186 6.62771 66.9818 6.79551C67.445 6.9633 67.8436 7.23071 68.1777 7.59775C68.5118 7.9648 68.7699 8.43146 68.9522 8.99775C69.1344 9.56405 69.2255 10.2562 69.2255 11.0742Z" fill="white"/>
</svg>
