<svg width="800" height="800" viewBox="0 0 800 800" fill="none" xmlns="http://www.w3.org/2000/svg">
<g clip-path="url(#clip0_49_2)">
<path d="M771.625 86.2L607.05 7.02503C587.9 -2.22497 565.125 1.67503 550.15 16.65L234.925 304.275L97.55 200.1C84.8 190.325 66.825 191.125 54.975 201.925L10.975 242.025C-3.6 255.175 -3.6 278.1 10.85 291.25L130 399.975L10.85 508.7C-3.6 521.85 -3.6 544.775 10.975 557.925L54.975 598.025C66.95 608.825 84.8 609.625 97.55 599.85L234.925 495.55L550.3 783.3C565.15 798.275 587.925 802.175 607.075 792.925L771.8 713.625C789.125 705.3 800.05 687.85 800.05 668.575V131.2C800.05 112.05 788.975 94.475 771.675 86.15L771.625 86.2ZM600.125 581.65L360.8 400L600.125 218.35V581.65Z" fill="#84DCE2"/>
</g>
<defs>
<clipPath id="clip0_49_2">
<rect width="800" height="800" fill="white"/>
</clipPath>
</defs>
</svg>
