<svg width="40" height="38" viewBox="0 0 40 38" fill="none" xmlns="http://www.w3.org/2000/svg">
<path d="M17.2264 26.5665H3.26809C2.94366 26.5665 2.67946 26.3021 2.67946 25.9777V3.26809C2.67946 2.94374 2.94374 2.67946 3.26809 2.67946H36.7306C37.0551 2.67946 37.3192 2.94374 37.3192 3.26809V8.24175C38.2993 8.35748 39.2176 8.67866 39.9986 9.20664V3.26809C39.9986 1.46595 38.532 0 36.7305 0H3.26809C1.46654 0 0 1.46587 0 3.26809V25.9776C0 27.7798 1.46654 29.2458 3.26809 29.2458H14.4842V33.6267H12.7154C11.606 33.6267 10.7058 34.5262 10.7058 35.6363C10.7058 36.7464 11.606 37.6459 12.7154 37.6459H18.3568C17.6517 36.6543 17.2265 35.4505 17.2265 34.1435L17.2264 26.5665Z" fill="white"/>
<path d="M28.4725 35.6191V32.7245H22.5852V14.2363C22.5852 13.8463 22.9018 13.529 23.2916 13.529H36.6129C37.0027 13.529 37.3192 13.8463 37.3192 14.2363V19.9581H38.3229C38.9364 19.9581 39.5042 20.1353 39.9986 20.4244V14.2363C39.9986 12.3686 38.4797 10.8496 36.6128 10.8496H23.2916C21.4248 10.8496 19.9058 12.3686 19.9058 14.2363V34.1433C19.9058 36.011 21.4247 37.5299 23.2916 37.5299H29.077C28.708 37.0001 28.4725 36.2618 28.4725 35.6191Z" fill="white"/>
<path d="M38.3228 21.6328H31.8245C30.8993 21.6328 30.1472 22.3857 30.1472 23.3106V35.6192C30.1472 36.5441 30.8993 37.2964 31.8245 37.2964H38.3228C39.2478 37.2964 40 36.5441 40 35.6192V23.3106C40 22.3857 39.2477 21.6328 38.3228 21.6328ZM32.1567 23.6423H37.9904V34.2821H32.1567V23.6423ZM35.0743 36.4813C34.8898 36.4813 34.725 36.4067 34.5994 36.2916C34.4567 36.162 34.3651 35.9801 34.3651 35.7727C34.3651 35.3816 34.6818 35.0649 35.0743 35.0649C35.4642 35.0649 35.7808 35.3816 35.7808 35.7727C35.7808 35.9801 35.6891 36.162 35.5479 36.2916C35.4222 36.4067 35.2574 36.4813 35.0743 36.4813Z" fill="white"/>
</svg>
