<svg width="40" height="40" viewBox="0 0 40 40" fill="none" xmlns="http://www.w3.org/2000/svg">
<path d="M26.0653 21.084C24.5969 21.084 23.2177 21.6549 22.1826 22.6914C21.1455 23.7279 20.5738 25.1064 20.5738 26.5741C20.5738 28.0403 21.1447 29.4195 22.1826 30.4574C23.2198 31.4939 24.5984 32.0648 26.0653 32.0648C27.5316 32.0648 28.9108 31.4939 29.948 30.4574C30.9851 29.4195 31.5561 28.0403 31.5561 26.5741C31.5561 25.107 30.9852 23.728 29.9487 22.6921C28.9122 21.6549 27.533 21.084 26.0653 21.084ZM29.2844 29.793C28.4241 30.6527 27.2816 31.1259 26.0653 31.1259C24.8498 31.1259 23.7058 30.6527 22.8462 29.793C21.986 28.9335 21.5127 27.7903 21.5127 26.5741C21.5127 25.3578 21.9859 24.2145 22.8462 23.3557C23.7058 22.4955 24.8498 22.0222 26.0653 22.0222C27.2816 22.0222 28.4241 22.4955 29.2844 23.3557C30.1439 24.2145 30.6172 25.3578 30.6172 26.5741C30.6173 27.7903 30.1439 28.9335 29.2844 29.793Z" fill="white"/>
<path d="M38.7329 24.7751L35.8067 24.351C35.6234 24.337 35.4655 24.2218 35.3944 24.0512L34.4465 21.7626C34.3755 21.5927 34.405 21.3988 34.5251 21.2598L36.2751 18.908C36.5539 18.5814 36.5356 18.0961 36.2316 17.7928L34.8468 16.408C34.6874 16.2478 34.4768 16.1671 34.2661 16.1671C34.0765 16.1671 33.8862 16.2324 33.7323 16.3645L31.3798 18.1152C31.2907 18.1917 31.1776 18.2317 31.0639 18.2317C31.0007 18.2317 30.9375 18.2191 30.8778 18.1946L28.5878 17.2451C28.4186 17.1756 28.3026 17.0154 28.2879 16.8335L27.8631 13.9074C27.8301 13.4789 27.4733 13.1489 27.045 13.1489H25.0858C24.6567 13.1489 24.2999 13.4789 24.2669 13.9074L23.8414 16.8335C23.8274 17.0154 23.7122 17.1756 23.5422 17.2457L21.2522 18.1945C21.1919 18.219 21.1287 18.2317 21.0655 18.2317C20.9518 18.2317 20.8394 18.1917 20.7495 18.1151L18.3984 16.3651C18.2446 16.2331 18.0544 16.1671 17.8654 16.1671C17.654 16.1671 17.4434 16.2485 17.2833 16.4086L15.8984 17.7928C15.5951 18.0968 15.5769 18.5813 15.8549 18.9079L17.6049 21.2597C17.7236 21.3987 17.7544 21.5925 17.6843 21.7625L16.7355 24.0518C16.6667 24.2217 16.5065 24.337 16.3247 24.351L13.3971 24.7758C12.9702 24.8096 12.6401 25.1663 12.6401 25.5953V27.5531C12.6401 27.983 12.9702 28.3397 13.3971 28.3733L16.3247 28.7975C16.5066 28.8123 16.6668 28.9281 16.7355 29.0974L17.6843 31.3873C17.7551 31.5559 17.7236 31.751 17.6049 31.8901L15.8549 34.2419C15.5769 34.567 15.5951 35.053 15.8984 35.3563L17.2833 36.7412C17.4434 36.9013 17.654 36.982 17.8647 36.982C18.0544 36.982 18.2447 36.9167 18.3985 36.7846L20.7496 35.0339C20.8394 34.9574 20.9519 34.9181 21.0656 34.9181C21.1288 34.9181 21.1919 34.9299 21.2523 34.9553L23.5422 35.9042C23.7121 35.9744 23.828 36.1331 23.842 36.3163L24.2669 39.2426C24.2998 39.6695 24.6566 40.0003 25.0857 40.0003H27.0449C27.474 40.0003 27.83 39.6695 27.8637 39.2426L28.2879 36.3163C28.3026 36.1331 28.4185 35.9745 28.5877 35.9042L30.8777 34.9554C30.9381 34.9301 31.0012 34.9182 31.0644 34.9182C31.1782 34.9182 31.2913 34.9575 31.3804 35.0341L33.7322 36.7848C33.8861 36.9168 34.0763 36.9821 34.266 36.9821C34.4767 36.9821 34.6873 36.9014 34.8467 36.7414L36.2315 35.3565C36.5362 35.0531 36.5538 34.5671 36.275 34.2421L34.525 31.8903C34.4071 31.7512 34.3754 31.556 34.4464 31.3874L35.3944 29.0975C35.4654 28.9282 35.6233 28.8124 35.8066 28.7977L38.7328 28.3735C39.1605 28.3398 39.4905 27.9831 39.4905 27.5547V25.5955C39.4906 25.1663 39.1605 24.8096 38.7329 24.7751ZM38.5517 27.4506L35.6944 27.8649C35.1754 27.9204 34.7315 28.2512 34.5272 28.7385L33.5799 31.0249C33.3769 31.5109 33.4563 32.0601 33.7856 32.4688L35.4949 34.7658L34.2562 36.0045L31.9599 34.2953C31.7071 34.0909 31.3904 33.9785 31.0645 33.9785C30.8742 33.9785 30.6889 34.0164 30.5189 34.0881L28.2268 35.0374C27.7415 35.2397 27.4108 35.6842 27.3553 36.2038L26.9411 39.0612H25.1897L24.7747 36.2046C24.7199 35.6849 24.3898 35.2397 23.9018 35.036L21.6146 34.0894C21.4397 34.0156 21.2551 33.9785 21.0655 33.9785C20.7411 33.9785 20.4251 34.0908 20.1715 34.2944L17.8738 36.0043L16.6358 34.7656L18.3444 32.4686C18.6744 32.0599 18.7537 31.51 18.5515 31.0275L17.6049 28.7425C17.4054 28.2538 16.9602 27.9209 16.4377 27.8647L13.579 27.4503V25.6975L16.4364 25.2832C16.9609 25.2285 17.4069 24.8942 17.6027 24.411L18.5501 22.1246C18.7537 21.6386 18.6744 21.0888 18.3444 20.6808L16.6351 18.3831L17.8745 17.1443L20.1701 18.8535C20.4236 19.0585 20.7396 19.1703 21.0654 19.1703C21.2537 19.1703 21.4376 19.1337 21.6117 19.0614L23.901 18.1127C24.3877 17.9118 24.7198 17.466 24.7739 16.9449L25.1896 14.0881H26.941L27.3552 16.9463C27.4115 17.4673 27.7437 17.9126 28.2281 18.112L30.5181 19.0614C30.6915 19.133 30.8755 19.1703 31.0637 19.1703C31.3903 19.1703 31.707 19.0579 31.9598 18.8535L34.2561 17.1443L35.4948 18.3831L33.787 20.678C33.4555 21.0853 33.3754 21.6358 33.5791 22.121L34.5272 24.411C34.7294 24.897 35.1747 25.2284 35.695 25.2832L38.5516 25.6975L38.5517 27.4506Z" fill="white"/>
<path d="M13.0782 20.3452L14.5206 19.8184C14.8373 19.7033 15.0108 19.3641 14.9209 19.0403L14.4469 16.7708C14.409 16.6303 14.4518 16.4828 14.5572 16.3859L15.9891 15.0714C16.0599 15.0061 16.1527 14.9717 16.2461 14.9717C16.2917 14.9717 16.3374 14.9795 16.3801 14.9949L18.5831 15.6529C18.6583 15.6809 18.7355 15.6943 18.8113 15.6936C19.0543 15.6929 19.2854 15.5531 19.3935 15.3214L20.0402 13.9289C20.1842 13.6234 20.0662 13.2604 19.7734 13.0953L17.8527 11.8341C17.7277 11.7632 17.6526 11.6291 17.6596 11.4844L17.7425 9.54274C17.7488 9.39876 17.8352 9.27235 17.9644 9.21204L20.0065 8.11235C20.3134 7.97329 20.4601 7.62079 20.3449 7.30548L19.819 5.86243C19.7241 5.60181 19.4769 5.43821 19.2115 5.43899C19.1546 5.4397 19.097 5.44665 19.0401 5.4629L16.7705 5.93548C16.7367 5.94532 16.7023 5.95024 16.6687 5.95024C16.5634 5.95095 16.4608 5.90602 16.3863 5.82603L15.0732 4.39477C14.9748 4.28884 14.9446 4.13774 14.9959 4.00368L15.6532 1.80001C15.7705 1.48477 15.6273 1.1336 15.321 0.991025L13.9285 0.3429C13.84 0.302119 13.7466 0.282509 13.6546 0.282509C13.4292 0.283837 13.2129 0.40329 13.0957 0.611103L11.8337 2.53243C11.7656 2.65181 11.6392 2.72548 11.5023 2.72618H11.4855L9.54304 2.64196C9.39976 2.63493 9.27054 2.5486 9.21163 2.41868L8.11273 0.377822C8.00531 0.140478 7.76999 -0.00131888 7.52351 9.24799e-06C7.45116 9.24799e-06 7.37749 0.0126655 7.30585 0.038603L5.86343 0.565947C5.54671 0.681181 5.37257 1.01962 5.4639 1.34337L5.93718 3.61368C5.97577 3.75204 5.93296 3.90017 5.82695 3.99712L4.39507 5.31173C4.32281 5.37774 4.23148 5.4122 4.13734 5.4129C4.09241 5.4129 4.04679 5.40446 4.00249 5.38759L1.80031 4.73173C1.72523 4.7029 1.64796 4.68962 1.5721 4.68962C1.32984 4.69095 1.09945 4.83009 0.990696 5.06181L0.3439 6.45501C0.200618 6.75978 0.317884 7.12212 0.610775 7.28853L2.5314 8.55048C2.6571 8.62071 2.73156 8.75485 2.72445 8.89743L2.64163 10.8405C2.63601 10.9838 2.5482 11.1109 2.41898 11.1713L0.376946 12.2709C0.0707746 12.4099 -0.0760223 12.7618 0.0391339 13.0771L0.56515 14.5202C0.660618 14.7807 0.907806 14.9457 1.17327 14.945C1.22945 14.9443 1.28632 14.9359 1.3432 14.9198L3.61421 14.4465C3.64726 14.4374 3.68093 14.4324 3.71398 14.4324C3.81999 14.4324 3.9232 14.476 3.99695 14.556L5.31085 15.9886C5.40913 16.0939 5.43788 16.2456 5.38812 16.3805L4.73077 18.5827C4.61359 18.898 4.75749 19.2498 5.06296 19.3931L6.45476 20.0405C6.5439 20.0813 6.63734 20.1009 6.72929 20.1009C6.95476 20.0995 7.17101 19.9808 7.28757 19.773L8.54952 17.8524C8.61687 17.733 8.74195 17.6584 8.87741 17.6584H8.89851L10.8402 17.742C10.9841 17.7477 11.1126 17.834 11.1724 17.9646L12.2714 20.0067C12.3795 20.2427 12.6141 20.3845 12.8612 20.3838C12.9329 20.3831 13.0066 20.3711 13.0782 20.3452ZM12.0094 17.5384C11.7952 17.1037 11.3655 16.8234 10.8801 16.8045L8.94554 16.7217C8.92163 16.7202 8.89781 16.7188 8.8739 16.7188C8.41812 16.7217 7.99117 16.9632 7.75374 17.3523L6.61906 19.0805L5.6907 18.6486L6.28202 16.6704C6.43718 16.2105 6.33109 15.7084 6.0032 15.3544L4.69148 13.924C4.4407 13.6487 4.08335 13.4921 3.71038 13.4942C3.60648 13.4942 3.50249 13.5068 3.4021 13.5321L1.35929 13.9577L1.00952 12.997L2.84656 12.0082C3.28124 11.7913 3.56148 11.3607 3.57906 10.8798L3.66265 8.94235C3.68577 8.45642 3.44351 8.00415 3.02851 7.75274L1.30242 6.61931L1.73359 5.69095L3.7146 6.2822C3.85226 6.3286 3.99546 6.35103 4.14156 6.35103C4.47015 6.34962 4.78413 6.22751 5.02991 6.00274L6.45757 4.69235C6.81921 4.36376 6.96812 3.8722 6.85085 3.40024L6.42601 1.35954L7.38663 1.00845L8.3746 2.8454C8.58952 3.27876 9.01788 3.55892 9.5032 3.57923L11.4476 3.66353L11.5059 3.66493C11.9652 3.66282 12.3929 3.41985 12.6302 3.03009L13.7651 1.30188L14.6934 1.73368L14.1028 3.71056C13.9455 4.17118 14.0509 4.67259 14.3809 5.0279L15.6948 6.45977C15.9454 6.73431 16.3022 6.89024 16.6723 6.88813C16.7776 6.88743 16.8816 6.87485 16.9841 6.85095L19.0248 6.4247L19.3744 7.38603L17.5366 8.37618C17.1077 8.5897 16.8281 9.01524 16.8042 9.50259L16.7206 11.4386C16.6974 11.9253 16.9398 12.3775 17.3555 12.6303L19.0809 13.7644L18.6497 14.6934L16.6694 14.1015C16.5317 14.0551 16.3885 14.032 16.2417 14.0327C15.9109 14.0333 15.5949 14.1584 15.3541 14.3795L13.9208 15.6949C13.5648 16.0234 13.418 16.5137 13.5325 16.9827L13.9587 19.0248L12.9973 19.3745L12.0094 17.5384Z" fill="white"/>
<path d="M14.2797 12.0941C14.7874 11.0013 14.8401 9.77666 14.4272 8.64604C14.0136 7.51479 13.1857 6.61166 12.0958 6.10533C11.487 5.82096 10.8409 5.67838 10.1758 5.68119C9.65624 5.6833 9.14218 5.77596 8.6478 5.95651C7.51515 6.3694 6.6121 7.19736 6.10437 8.28932C5.59663 9.37994 5.54397 10.6038 5.95616 11.7373C6.37054 12.8693 7.19921 13.7724 8.28905 14.2787C8.89718 14.5617 9.54319 14.7049 10.2082 14.7021C10.7286 14.6993 11.2426 14.6067 11.7377 14.4268C12.8676 14.014 13.7699 13.1853 14.2797 12.0941ZM11.4153 13.5449C11.0214 13.6888 10.612 13.7612 10.204 13.7626C9.68569 13.7654 9.16882 13.653 8.68507 13.4276C7.82061 13.0252 7.16616 12.3103 6.83819 11.4149C6.51241 10.5182 6.55304 9.54916 6.95546 8.68533C7.35788 7.82018 8.07343 7.16432 8.96874 6.83854C9.36335 6.69385 9.7728 6.62151 10.1801 6.6201C10.6984 6.61791 11.2145 6.73033 11.6983 6.9558C12.5621 7.35815 13.218 8.07307 13.5452 8.96838C13.8718 9.86447 13.8302 10.8328 13.4286 11.698C13.0248 12.5624 12.3107 13.2177 11.4153 13.5449Z" fill="white"/>
</svg>
