<svg width="40" height="40" viewBox="0 0 40 40" fill="none" xmlns="http://www.w3.org/2000/svg">
<path d="M0 0V40H40V0H0ZM21.7679 31.1964C21.7679 35.0893 19.4821 36.8661 16.1518 36.8661C13.1429 36.8661 11.4018 35.3125 10.5089 33.4286L13.5714 31.5804C14.1607 32.625 14.6964 33.5089 15.9911 33.5089C17.2232 33.5089 18.0089 33.0268 18.0089 31.1429V18.3661H21.7679V31.1964ZM30.6607 36.8661C27.1696 36.8661 24.9107 35.2054 23.8125 33.0268L26.875 31.2589C27.6786 32.5714 28.7321 33.5446 30.5804 33.5446C32.1339 33.5446 33.1339 32.7679 33.1339 31.6875C33.1339 30.4018 32.1161 29.9464 30.3929 29.1875L29.4554 28.7857C26.7411 27.6339 24.9464 26.1786 24.9464 23.1161C24.9464 20.2946 27.0982 18.1518 30.4464 18.1518C32.8393 18.1518 34.5536 18.9821 35.7857 21.1607L32.8571 23.0357C32.2143 21.8839 31.5179 21.4286 30.4375 21.4286C29.3393 21.4286 28.6429 22.125 28.6429 23.0357C28.6429 24.1607 29.3393 24.6161 30.9554 25.3214L31.8929 25.7232C35.0893 27.0893 36.8839 28.4911 36.8839 31.6339C36.8839 35.0089 34.2232 36.8661 30.6607 36.8661Z" fill="#D2C478"/>
</svg>
