<svg width="40" height="40" viewBox="0 0 40 40" fill="none" xmlns="http://www.w3.org/2000/svg">
<path d="M39.8364 22.5395C41.2362 11.5815 33.4976 1.56332 22.5595 0.163575C11.6215 -1.23617 1.56332 6.50243 0.163575 17.4405C-1.23617 28.3785 6.50243 38.4167 17.4405 39.8364C28.3985 41.2362 38.4167 33.4976 39.8364 22.5395Z" fill="#C47157"/>
<path d="M27.2187 12.8412L18.7802 21.2797L16.4007 18.9001C24.6992 10.6016 25.519 11.3215 27.2187 12.8412Z" fill="#020202"/>
<path d="M18.7802 21.4796C18.7202 21.4796 18.6802 21.4596 18.6403 21.4197L16.2407 19.0401C16.1607 18.9601 16.1607 18.8401 16.2407 18.7601C24.6792 10.3217 25.559 11.1215 27.3387 12.7212C27.3787 12.7612 27.3987 12.8012 27.3987 12.8612C27.3987 12.9212 27.3787 12.9612 27.3387 13.0012L18.9002 21.4197C18.8802 21.4596 18.8202 21.4796 18.7802 21.4796ZM16.6806 18.9001L18.7802 20.9997L26.9188 12.8612C25.439 11.5414 24.4392 11.1415 16.6806 18.9001Z" fill="#C47157"/>
<path d="M21.1998 23.6992L18.9002 21.3997L27.3387 12.9612C29.5983 15.2408 26.2189 18.9401 21.1998 23.6992Z" fill="#020202"/>
<path d="M21.1998 23.8992C21.1398 23.8992 21.0998 23.8792 21.0598 23.8392L18.7602 21.5396C18.7202 21.4997 18.7202 21.4597 18.7202 21.3997C18.7202 21.3397 18.7402 21.2997 18.7802 21.2597L27.2187 12.8212C27.2987 12.7412 27.4187 12.7412 27.4986 12.8212C28.0186 13.3011 28.2985 13.981 28.2785 14.6809C28.2385 16.9005 25.719 19.72 21.3598 23.8392C21.2998 23.8792 21.2398 23.8992 21.1998 23.8992ZM19.1801 21.3997C20.4599 22.6994 20.9998 23.2193 21.1998 23.4193C24.5592 20.2199 27.8186 16.9405 27.8386 14.6809C27.8586 14.161 27.6586 13.6411 27.3187 13.2411L19.1801 21.3997Z" fill="#C47157"/>
<path d="M16.4406 18.96L18.1403 20.6597C18.1803 20.6997 18.1803 20.7397 18.1403 20.7797C18.1203 20.7997 18.1203 20.7997 18.1003 20.7997L14.581 21.5596C14.401 21.5796 14.241 21.4596 14.201 21.2796C14.1811 21.1796 14.221 21.0796 14.281 21.0197L16.3207 18.98C16.3607 18.94 16.4206 18.92 16.4406 18.96Z" fill="#020202"/>
<path d="M14.521 21.7596C14.221 21.7596 14.0011 21.5196 14.0011 21.2196C14.0011 21.0797 14.0611 20.9397 14.1611 20.8397L16.2007 18.8001C16.3207 18.7001 16.4806 18.7001 16.6006 18.8001L18.3003 20.4998C18.4203 20.5998 18.4203 20.7797 18.3003 20.8997C18.2603 20.9397 18.2203 20.9597 18.1603 20.9797L14.641 21.7396C14.601 21.7396 14.561 21.7596 14.521 21.7596ZM16.3807 19.18L14.421 21.1397C14.381 21.1797 14.361 21.2396 14.401 21.2996C14.421 21.3596 14.481 21.3796 14.541 21.3596L17.8404 20.6398L16.3807 19.18Z" fill="#C47157"/>
<path d="M31.6779 8.16209C30.3981 6.92232 28.3385 6.96231 27.0987 8.26208C25.8589 9.56184 25.8989 11.6015 27.1987 12.8412C28.2585 13.8611 29.8582 14.041 31.118 13.2812L28.8384 11.0016L31.6779 8.16209Z" fill="#020202"/>
<path d="M29.4383 13.941C27.5386 13.941 25.9989 12.4013 25.9989 10.5016C25.9989 8.60198 27.5386 7.06226 29.4383 7.06226C30.3181 7.06226 31.178 7.40219 31.8179 8.02208C31.8579 8.06208 31.8779 8.10207 31.8779 8.16206C31.8779 8.22205 31.8579 8.26204 31.8179 8.30203L29.1184 11.0015L31.238 13.1212C31.318 13.2011 31.318 13.3211 31.238 13.4011C31.218 13.4211 31.218 13.4211 31.198 13.4411C30.6781 13.761 30.0582 13.941 29.4383 13.941ZM29.4383 7.48218C27.7586 7.48218 26.3988 8.84193 26.4188 10.5216C26.4188 12.2013 27.7786 13.5611 29.4583 13.5411C29.9182 13.5411 30.3781 13.4411 30.7981 13.2211L28.6984 11.1415C28.6584 11.1015 28.6384 11.0615 28.6384 11.0015C28.6384 10.9416 28.6584 10.9016 28.6984 10.8616L31.3779 8.18205C30.838 7.72214 30.1582 7.48218 29.4383 7.48218Z" fill="#C47157"/>
<path d="M31.7379 8.22212L31.6979 8.18213L28.8384 11.0016L31.098 13.2612C31.318 13.1212 31.5379 12.9613 31.7179 12.7813C32.9977 11.5215 32.9977 9.48189 31.7379 8.22212Z" fill="#020202"/>
<path d="M31.118 13.4812C31.058 13.4812 31.018 13.4612 30.978 13.4212L28.6984 11.1416C28.6584 11.1016 28.6384 11.0616 28.6384 11.0016C28.6384 10.9416 28.6584 10.9016 28.6984 10.8616L31.5379 8.02215C31.6179 7.94216 31.7379 7.94216 31.8179 8.02215L31.8779 8.06214C33.2176 9.4019 33.2176 11.5615 31.8979 12.9213C31.6979 13.1212 31.4779 13.3012 31.238 13.4412C31.178 13.4612 31.138 13.4812 31.118 13.4812ZM29.1184 11.0016L31.138 13.0212C31.298 12.9213 31.4579 12.7813 31.5779 12.6613C32.7177 11.5215 32.7777 9.66185 31.6779 8.46207L29.1184 11.0016Z" fill="#C47157"/>
<path d="M27.5586 13.2012C27.0787 12.7213 26.2989 12.7213 25.819 13.2012L18.2803 20.7399L19.5401 21.9997L27.5187 15.0009C28.0386 14.561 28.0786 13.7811 27.6386 13.2612C27.5986 13.2412 27.5786 13.2212 27.5586 13.2012Z" fill="#020202"/>
<path d="M19.5201 22.1996C19.4601 22.1996 19.4201 22.1796 19.3801 22.1396L18.1203 20.8799C18.0404 20.7999 18.0404 20.6799 18.1203 20.5999L25.659 13.0613C26.2189 12.5014 27.1187 12.5014 27.6786 13.0613C28.2385 13.6212 28.2385 14.521 27.6786 15.0809C27.6586 15.1009 27.6386 15.1209 27.6186 15.1409L19.6401 22.1396C19.6201 22.1796 19.5801 22.1996 19.5201 22.1996ZM18.5603 20.7399L19.5401 21.7197L27.3787 14.841C27.8186 14.481 27.8586 13.8211 27.4986 13.3812C27.1387 12.9413 26.4788 12.9013 26.0389 13.2612C26.0189 13.2812 25.9989 13.3012 25.9589 13.3212L18.5603 20.7399Z" fill="#C47157"/>
<path d="M12.5013 29.3182C12.4214 29.3582 12.3814 29.4381 12.4014 29.5181L12.7413 30.9579C12.8213 31.1578 12.7013 31.3978 12.4814 31.4578C12.3214 31.5178 12.1414 31.4578 12.0414 31.3378L9.84183 29.1582L17.0205 21.9795L19.5001 22.0195L21.1798 23.6992C20.7799 24.0391 18.3603 26.3787 12.5013 29.3182Z" fill="#020202"/>
<path d="M12.3414 31.6578C12.1814 31.6578 12.0214 31.5978 11.9215 31.4778L9.74186 29.2982C9.70187 29.2582 9.68187 29.2182 9.68187 29.1582C9.68187 29.0982 9.70187 29.0582 9.74186 29.0182L16.9206 21.8395C16.9606 21.7995 17.0205 21.7795 17.0605 21.7795L19.5401 21.8195C19.6001 21.8195 19.6401 21.8395 19.6801 21.8795L21.3598 23.5592C21.3998 23.5992 21.4198 23.6592 21.4198 23.7192C21.4198 23.7792 21.3998 23.8192 21.3398 23.8592L21.1998 23.9791C19.0802 25.8388 16.2007 27.6985 12.6213 29.4782L12.9613 30.8979C13.0213 31.1579 12.9013 31.4378 12.6613 31.5778C12.5414 31.6378 12.4414 31.6578 12.3414 31.6578ZM10.1418 29.1582L12.2014 31.1978C12.2614 31.2978 12.3814 31.3378 12.4814 31.2778C12.5813 31.2178 12.6213 31.0979 12.5614 30.9979L12.2214 29.5581C12.1814 29.3782 12.2614 29.2182 12.4214 29.1382C15.9607 27.3585 18.8202 25.5189 20.9198 23.6992L19.4401 22.2195L17.1405 22.1795L10.1418 29.1582Z" fill="#C47157"/>
<path d="M8.14214 30.8779L9.86183 29.1582L12.4214 31.7177L8.3421 31.4378C8.16214 31.4178 8.04216 31.2578 8.06215 31.0779C8.06215 30.9979 8.08215 30.9179 8.14214 30.8779Z" fill="#020202"/>
<path d="M12.4214 31.8977L8.32211 31.6177C8.02216 31.5978 7.8222 31.3378 7.8422 31.0379C7.86219 30.9179 7.90218 30.7979 8.00217 30.7179L9.72186 28.9982C9.80184 28.9182 9.92182 28.9182 10.0018 28.9982L12.5613 31.5578C12.6213 31.6177 12.6413 31.6977 12.6013 31.7777C12.5613 31.8577 12.5014 31.8977 12.4214 31.8977ZM9.86183 29.4381L8.28212 31.0179C8.22213 31.0578 8.22213 31.1578 8.28212 31.1978C8.30211 31.2178 8.32211 31.2378 8.3621 31.2378L11.9015 31.4778L9.86183 29.4381Z" fill="#C47157"/>
<path d="M16.3207 22.8994C16.2007 22.8994 16.1207 22.7994 16.1207 22.6994C16.1207 22.6394 16.1407 22.5994 16.1807 22.5595L18.1203 20.6198C18.2003 20.5398 18.3203 20.5398 18.4003 20.6198L19.6601 21.8796C19.72 21.9396 19.74 21.9996 19.72 22.0795C19.7001 22.1395 19.6401 22.1995 19.5601 22.2195L16.3607 22.8994C16.3407 22.8994 16.3207 22.8994 16.3207 22.8994ZM18.2603 21.0397L16.9405 22.3595L19.1002 21.8996L18.2603 21.0397Z" fill="#C47157"/>
<path d="M19.5001 22.0196L17.3005 22.4995C17.1405 22.5395 16.9806 22.4395 16.9406 22.2795C16.9206 22.1795 16.9406 22.0796 17.0205 21.9996L18.2403 20.7798L19.5001 22.0196Z" fill="#020202"/>
<path d="M17.2605 22.6994C16.9805 22.6994 16.7606 22.4795 16.7606 22.1995C16.7606 22.0595 16.8206 21.9396 16.9006 21.8396L18.1203 20.6198C18.2003 20.5398 18.3203 20.5398 18.4003 20.6198L19.6601 21.8796C19.7201 21.9396 19.7401 21.9996 19.7201 22.0795C19.7001 22.1395 19.6401 22.1995 19.5601 22.2195L17.3605 22.6994C17.3205 22.6994 17.2805 22.6994 17.2605 22.6994ZM18.2603 21.0397L17.1805 22.1195C17.1405 22.1595 17.1405 22.1995 17.1605 22.2395C17.1805 22.2795 17.2205 22.2995 17.2805 22.2995L19.1202 21.8996L18.2603 21.0397Z" fill="#C47157"/>
<path d="M31.7579 10.1418C31.7179 10.0218 31.5779 9.96185 31.4579 10.0018C31.338 10.0418 31.278 10.1818 31.318 10.3018C31.318 10.3218 31.338 10.3418 31.338 10.3618C31.4579 10.6017 31.418 10.9017 31.258 11.1216C31.178 11.2216 31.198 11.3616 31.278 11.4416C31.378 11.5216 31.5179 11.5016 31.5979 11.4016C31.8979 11.0217 31.9579 10.5417 31.7579 10.1418Z" fill="#C47157"/>
</svg>
