<svg width="45" height="40" viewBox="0 0 45 40" fill="none" xmlns="http://www.w3.org/2000/svg">
<path fill-rule="evenodd" clip-rule="evenodd" d="M22.5 0C16.4993 0 12.7507 4.44333 11.25 13.3333C13.5 8.89001 16.1257 7.22334 19.125 8.33333C20.8372 8.96714 22.0613 10.8082 23.4135 12.8437C25.6208 16.1603 28.1745 20 33.75 20C39.7508 20 43.4992 15.5567 45 6.66667C42.75 11.11 40.1265 12.7767 37.125 11.6667C35.4128 11.0329 34.1888 9.19182 32.8343 7.15627C30.6293 3.83635 28.0778 0 22.5 0ZM11.25 20C5.24925 20 1.50075 24.4433 0 33.3333C2.25 28.8867 4.87575 27.2233 7.875 28.3333C9.58725 28.9671 10.8112 30.8082 12.1658 32.8437C14.3708 36.1603 16.9245 40 22.5023 40C28.503 40 32.2515 35.5567 33.7523 26.6667C31.5022 31.11 28.8765 32.7767 25.8773 31.6667C24.165 31.0329 22.941 29.1918 21.5888 27.1563C19.3793 23.8397 16.8255 20 11.25 20Z" fill="#97F5EF"/>
</svg>
