<svg width="40" height="40" viewBox="0 0 40 40" fill="none" xmlns="http://www.w3.org/2000/svg">
<path d="M19.991 40C19.3912 40 18.7825 39.8571 18.2543 39.5873L12.7305 36.6901C11.9069 36.2774 12.3098 36.1345 12.5783 36.0552C13.6795 35.7139 13.9033 35.6424 15.0761 35.0471C15.2014 34.9836 15.3626 35.0074 15.4879 35.0789L19.7314 37.3093C19.8836 37.3886 20.0985 37.3886 20.2417 37.3093L36.7771 28.8481C36.9293 28.7687 37.0278 28.61 37.0278 28.4512V11.5289C37.0278 11.3622 36.9293 11.2114 36.7681 11.1241L20.2417 2.6709C20.0895 2.59153 19.8836 2.59153 19.7314 2.6709L3.21397 11.1321C3.05282 11.2114 2.95434 11.3702 2.95434 11.5369V28.4512C2.95434 28.61 3.05282 28.7687 3.21397 28.8402L7.74396 31.1579C10.2059 32.2453 11.7099 30.9674 11.7099 29.6736V12.9735C11.7099 12.7354 11.9248 12.5528 12.1934 12.5528H14.2883C14.5479 12.5528 14.7717 12.7354 14.7717 12.9735V29.6815C14.7717 32.5866 12.9812 34.2534 9.87467 34.2534C8.91674 34.2534 8.16473 34.2534 6.06983 33.3327L1.7368 31.1182C0.662489 30.5705 0 29.5466 0 28.4433V11.5289C0 10.4336 0.662489 9.40173 1.7368 8.85405L18.2543 0.392896C19.3017 -0.130965 20.6893 -0.130965 21.7278 0.392896L38.2632 8.86199C39.3375 9.40966 40 10.4336 40 11.5369V28.4512C40 29.5466 39.3375 30.5705 38.2632 31.1261L21.7278 39.5873C21.1996 39.8571 20.5998 40 19.991 40ZM33.3393 23.3237C33.3393 20.1568 30.9221 19.3154 25.846 18.7201C20.7073 18.1169 20.188 17.8073 20.188 16.7437C20.188 15.8627 20.6267 14.688 24.4315 14.688C27.8245 14.688 29.0779 15.3388 29.5971 17.3708C29.6419 17.5613 29.8389 17.7041 30.0627 17.7041H32.2113C32.3456 17.7041 32.4709 17.6565 32.5604 17.5692C32.65 17.4819 32.6947 17.3628 32.6858 17.2438C32.3545 13.7434 29.7314 12.1163 24.4315 12.1163C19.7135 12.1163 16.9024 13.8784 16.9024 16.839C16.9024 20.0456 19.7046 20.9346 24.2256 21.3315C29.6419 21.7998 30.0627 22.5062 30.0627 23.4507C30.0627 25.0858 28.5765 25.7843 25.094 25.7843C20.7162 25.7843 19.7583 24.808 19.436 22.8793C19.4002 22.6729 19.2032 22.5221 18.9615 22.5221H16.8218C16.5533 22.5221 16.3474 22.7126 16.3474 22.9428C16.3474 25.4113 17.8603 28.356 25.103 28.356C30.3312 28.348 33.3393 26.5145 33.3393 23.3237Z" fill="#57B45A"/>
</svg>
