<svg width="40" height="40" viewBox="0 0 40 40" fill="none" xmlns="http://www.w3.org/2000/svg">
<path d="M38.7063 18.3106C38.5969 18.2988 38.4702 18.2909 38.3422 18.2909C37.6966 18.2909 37.0791 18.4677 36.511 18.7898L36.5456 18.7721C36.3789 18.8703 36.1122 18.8703 36.0895 19.1826C36.1815 19.3122 36.1949 19.5263 36.2722 19.707C36.4283 20.0959 36.6203 20.4259 36.8444 20.7009L36.8484 20.7067C37.0818 20.9758 37.3152 21.237 37.5606 21.4668C37.9941 21.8597 38.4862 22.0934 38.9103 22.4882C39.1517 22.718 39.3985 23.0106 39.6439 23.2561C39.7653 23.3779 39.844 23.5998 40 23.6784V23.6293C39.924 23.482 39.9 23.2679 39.8253 23.1049C39.7132 22.9399 39.6025 22.7926 39.4918 22.6316C39.1611 21.9932 38.7783 21.4472 38.3488 20.9915L38.3328 20.9758C37.9767 20.6184 37.1965 20.1175 37.0498 19.5145L37.0284 19.4792C37.3192 19.4183 37.5779 19.328 37.8274 19.2062L37.7953 19.2199C38.1741 19.0726 38.5209 19.104 38.9117 18.9607C39.0877 18.8939 39.2664 18.8134 39.4452 18.7309V18.5836C39.2451 18.2889 39.0957 17.8883 38.889 17.6133C38.3435 16.9062 37.742 16.2424 37.1085 15.6453L37.0485 15.5923C36.699 15.2643 36.2549 15.0521 35.8868 14.7732C35.7534 14.675 35.5307 14.6259 35.4533 14.4609C35.2799 14.0976 35.1265 13.6812 35.0052 13.2412L34.9945 13.198C34.6673 12.2631 34.3632 11.3118 34.0822 10.3442C33.8902 9.59196 33.6994 8.97523 33.4847 8.37815L33.5154 8.47046C32.4671 5.87983 31.0066 3.79789 29.2634 2.37785L29.2061 2.33464C28.794 2.03414 28.3152 1.80041 27.8123 1.66882L27.779 1.66096C27.5003 1.64132 27.2228 1.61186 26.9454 1.59418C26.7507 1.40956 26.5826 1.221 26.4253 1.01281L26.4293 1.0187C25.7957 0.429477 24.1566 -0.847182 23.6898 0.841936C23.3897 1.90647 24.1352 2.95726 24.3927 3.49739C24.598 3.85681 24.7848 4.25945 24.9462 4.68566L24.9595 4.72494C25.0382 5.00974 25.0595 5.30238 25.1382 5.59896C25.3316 6.48673 25.5277 7.21541 25.7504 7.92052L25.7157 7.79874C25.8478 8.1896 25.9851 8.52153 26.1385 8.83578L26.1278 8.81222C26.2172 8.99095 26.3706 9.0754 26.4066 9.37002C26.2919 9.72552 26.2025 10.138 26.1532 10.5681L26.1505 10.5956C26.0065 11.2477 25.9224 11.9999 25.9224 12.7797C25.9224 13.9994 26.1265 15.1484 26.4866 16.1579L26.4733 16.1186C26.652 16.5252 27.0761 17.4287 27.6443 17.083C28.1444 16.7884 28.0337 15.8554 28.1778 15.0345C28.2111 14.838 28.1898 14.7084 28.2578 14.5749V14.6122C28.4139 15.0737 28.5712 15.5137 28.7139 15.9753C29.1167 16.8296 29.5955 17.5563 30.1424 18.1554L30.1597 18.1731C30.4265 18.4677 30.6385 18.9783 30.972 19.159V19.1099H30.9466C30.8706 18.9882 30.7866 18.8801 30.6945 18.7878L30.6892 18.7839C30.4825 18.4854 30.2904 18.1632 30.117 17.8235L30.1064 17.8019C29.6716 16.9377 29.2581 15.9595 28.8993 14.9323L28.8607 14.8125C28.6779 14.2979 28.5246 13.7421 28.3778 13.2334C28.3112 13.037 28.3112 12.7424 28.1991 12.6442C28.0017 12.9702 27.8243 13.3336 27.6763 13.7244L27.6656 13.7558C27.4949 14.4884 27.3829 15.335 27.3535 16.2129V16.2345C27.3082 16.2522 27.3309 16.2345 27.3082 16.2699C26.9521 16.1422 26.8294 15.5981 26.696 15.1405C26.5146 14.4217 26.4093 13.5889 26.4093 12.7227C26.4093 12.0235 26.4773 11.3479 26.6053 10.7095L26.5973 10.7606C26.676 10.4169 27.0094 9.3327 26.8761 9.00273C26.8067 8.69044 26.5866 8.51171 26.4639 8.25834C26.3186 7.95587 26.1852 7.61215 26.0745 7.2488L26.0638 7.20952C25.7971 6.29229 25.6637 5.27489 25.3743 4.35766C25.1996 3.87842 25.0155 3.46596 24.8088 3.081L24.8181 3.09868C24.598 2.72353 24.3953 2.30518 24.2193 1.8613L24.2046 1.82202C24.1499 1.64328 24.0712 1.34671 24.1592 1.1503C24.1753 1.03638 24.2366 0.947997 24.3153 0.93032C24.462 0.753552 24.8755 0.983351 25.0195 1.08156C25.4423 1.31725 25.8064 1.59418 26.1438 1.92022L26.1225 1.90058C26.2786 2.06164 26.4479 2.37393 26.648 2.45445H26.8814C27.2375 2.57034 27.6403 2.48981 27.9737 2.63319C28.5859 2.93762 29.1154 3.31865 29.6049 3.78611L29.5769 3.76057C31.0493 5.16097 32.2283 7.05435 33.0259 9.29145L33.0526 9.37198C33.186 9.74909 33.2446 10.0967 33.366 10.4895C33.5994 11.2988 33.8875 12.1178 34.1249 12.8995C34.3503 13.7401 34.6171 14.4668 34.9345 15.1366L34.9185 15.1012C35.0852 15.4449 35.7547 15.6237 36.0548 15.8024C36.3709 15.9654 36.6243 16.1206 36.8697 16.2954L36.8204 16.264C37.2032 16.6077 37.5766 17.0005 37.9367 17.3776C38.1194 17.5642 38.6756 17.9747 38.7089 18.3047L38.7063 18.3106ZM23.0696 32.6739C23.0696 32.7034 23.0709 32.7368 23.0709 32.7702C23.0709 33.8661 22.7388 34.8462 22.2133 35.5062L22.2093 35.5101C21.6332 36.2015 20.8903 36.6218 20.0807 36.6218C20.018 36.6218 19.9553 36.6198 19.894 36.6139H19.902C18.9163 36.5943 18.0094 36.1229 17.2665 35.3353L17.2799 35.349L17.6746 34.1804C18.2468 34.6518 18.927 34.9444 19.6499 34.9857H19.6579C19.6939 34.9896 19.7353 34.9916 19.7779 34.9916C20.2207 34.9916 20.6329 34.7873 20.9703 34.4397L20.9636 34.4456C21.269 34.1038 21.4638 33.5696 21.4638 32.9686C21.4638 32.9568 21.4638 32.947 21.4638 32.9352V32.9371C21.4638 32.1279 21.081 31.4405 20.3834 30.8631C19.7366 30.3406 18.4455 29.2505 18.4455 29.2505C17.808 28.6692 17.3906 27.6459 17.3906 26.4792C17.3906 26.438 17.3906 26.3967 17.3919 26.3555V26.3614C17.3906 26.324 17.3906 26.2808 17.3906 26.2376C17.3906 25.2261 17.6933 24.3187 18.1721 23.702L18.1748 23.6981C18.6843 23.0617 19.3498 22.6748 20.0767 22.6748C20.1234 22.6748 20.1687 22.6767 20.2141 22.6787H20.2074C20.2194 22.6787 20.2341 22.6787 20.2487 22.6787C21.101 22.6787 21.8946 23.0538 22.5561 23.7L22.5401 23.6863L22.1853 24.8549C21.6638 24.5092 21.0557 24.301 20.4155 24.2912H20.4128C20.3808 24.2873 20.3448 24.2853 20.3074 24.2853C19.934 24.2853 19.5899 24.4778 19.3205 24.7999L19.3231 24.796C19.0711 25.1043 18.911 25.5659 18.9097 26.0825C18.9097 26.8877 19.2991 27.5791 20.0193 28.1683C20.6742 28.6967 21.9973 29.8123 21.9973 29.8123C22.6481 30.376 23.0789 31.4012 23.0789 32.5757C23.0789 32.6111 23.0789 32.6484 23.0776 32.6838V32.6779L23.0696 32.6739ZM25.8331 33.7169C25.469 32.6464 25.2569 31.3855 25.2569 30.0519C25.2569 29.8417 25.2622 29.6335 25.2729 29.4293L25.2716 29.4568C25.2716 26.0379 25.9771 24.3279 27.3882 24.3266C27.4229 24.3226 27.4642 24.3207 27.5069 24.3207C28.1404 24.3207 28.6966 24.8078 29.0127 25.5423L29.0167 25.5522C29.3781 26.6167 29.5902 27.8737 29.5902 29.2014C29.5902 29.4057 29.5849 29.608 29.5755 29.8083L29.5769 29.7808C29.5769 33.2272 28.8713 34.9516 27.4602 34.9543C27.4242 34.9582 27.3829 34.9601 27.3415 34.9601C26.708 34.9601 26.1505 34.4731 25.8344 33.7385L25.8304 33.7287L25.8331 33.7169ZM31.3201 36.7651L29.6262 35.5376C29.7809 35.3471 29.9196 35.1467 30.0477 34.9307L30.0517 34.9248C30.7359 33.5656 31.1467 31.8549 31.1467 30.0047C31.1467 29.7907 31.1413 29.5785 31.1307 29.3684L31.132 29.3959C31.132 24.9047 29.9348 22.6577 27.5403 22.6551C27.4869 22.6512 27.4242 22.6492 27.3615 22.6492C26.3386 22.6492 25.4196 23.3111 24.7941 24.3619L24.7914 24.3678C24.1099 25.727 23.7004 27.4357 23.7004 29.2859C23.7004 29.4941 23.7058 29.7003 23.7164 29.9046L23.7151 29.8771C23.7031 30.0755 23.6964 30.3072 23.6964 30.5409C23.6964 32.2576 24.0619 33.8485 24.6834 35.1546L24.6714 35.1291C25.2702 36.0679 26.1198 36.6532 27.0601 36.6532C27.1481 36.6532 27.2348 36.6473 27.3202 36.6375L27.3082 36.6394C27.3202 36.6394 27.3362 36.6394 27.3509 36.6394C27.7657 36.6394 28.1671 36.5511 28.5472 36.388L28.5179 36.3998L30.7266 38.2952L31.3267 36.7691L31.3201 36.7651ZM36.8524 36.4332H32.4684V22.8613H33.9435V34.7657H36.8524V36.4332ZM16.3116 26.4203C15.9288 30.5134 15.0525 34.2079 13.7708 37.5174L13.8241 37.3662C13.3107 38.8215 12.3397 39.835 11.1994 39.998L11.186 40C10.8406 39.9725 10.5192 39.8507 10.2271 39.6524L10.2431 39.6622V38.4503C10.4258 38.4916 10.6365 38.5152 10.8513 38.5152C10.8633 38.5152 10.8753 38.5152 10.8886 38.5152C10.9099 38.5171 10.9326 38.5171 10.9566 38.5171C11.3421 38.5171 11.6955 38.3109 11.9676 37.9672L11.9649 37.9691C12.2583 37.6136 12.4464 37.0833 12.4571 36.4862C12.3864 35.626 12.2517 34.8403 12.0583 34.0999L12.0743 34.1667L10.3844 26.4203H11.9009L13.1133 32.2124C13.3293 33.0294 13.4547 33.9761 13.4547 34.9641C13.4547 34.966 13.4547 34.968 13.4547 34.968C14.0976 32.4893 14.5857 29.5982 14.8338 26.599L14.8458 26.4183L16.3116 26.4203ZM9.61622 36.4332H8.07175C8.02819 32.818 7.87836 29.2099 7.62229 25.6091H7.60895L5.25891 36.4332H4.08389L1.74986 25.6091H1.73385C1.55158 29.2113 1.4431 32.8193 1.40842 36.4332H0C0.091583 31.6081 0.319207 27.0835 0.682871 22.8594H2.59945L4.82411 32.835H4.83745L7.08212 22.8594H8.90667C9.31035 27.805 9.5482 32.3296 9.62022 36.4332H9.61622ZM27.3415 4.05126C27.3389 4.05126 27.3349 4.05126 27.3309 4.05126C27.1722 4.05126 27.0188 4.08072 26.8721 4.13572L26.8854 4.13179V4.16321H26.9081C27.0228 4.41462 27.1401 4.63263 27.2668 4.8369L27.2642 4.83297C27.3535 5.09616 27.4309 5.35738 27.5203 5.6186L27.5429 5.58129C27.6883 5.41237 27.7803 5.15311 27.7803 4.86243C27.7803 4.82707 27.779 4.79369 27.7763 4.75833V4.76226C27.7096 4.64638 27.7003 4.53246 27.643 4.41854C27.5763 4.25356 27.4336 4.17303 27.3429 4.0434L27.3415 4.05126Z" fill="white"/>
</svg>
